<svg xmlns="http://www.w3.org/2000/svg" viewBox="0 0 32 32" role="img" aria-labelledby="googleplus-title googleplus-desc" alt="Find us on Google Plus"><title id="googleplus-title">Google Plus</title><desc id="googleplus-desc">Find us on Google Plus</desc><path d="M10.2 25.9c-0.9-0.3-1.8-0.4-2.8-0.5 -3.3 0-6.2 1.5-7.4 3.7V32h15.1c0-0.1 0-0.3 0-0.4 0-0.4 0-0.8-0.1-1.2C14.5 28.5 12.6 27.5 10.2 25.9L10.2 25.9zM12.1 11.3c-0.5-3.8-3-7-5.9-7.1C3.2 4.2 1.3 7.1 1.8 11c0.5 3.8 3.3 6.5 6.2 6.6C10.9 17.7 12.6 15.2 12.1 11.3zM0 17v8.7c1.7-0.9 3.7-1.5 6-1.5 0.7 0 1.3 0 2 0 -0.9-0.8-1.6-1.6-1.6-2.8 0-0.8 0.2-1.5 0.6-2.1 -0.3 0-0.7 0-1.1 0C3.4 19.2 1.4 18.4 0 17L0 17zM32 8V0H0v5.8c1.9-1.9 4.7-3.2 7.8-3.2 2.8 0 10.8 0 10.8 0l-2.4 2.5h-2.8c2 1.2 3.1 3.5 3.1 6.1 0 2.4-1.3 4.3-3.2 5.8 -1.8 1.4-2.2 2-2.2 3.2 0 1 2.2 2.6 3.2 3.3 3.5 2.6 4.2 4.3 4.2 7.6 0 0.3 0 0.6-0.1 0.9H32V10.5h-5v5h-2.5v-5h-5V8h5V3H27v5L32 8 32 8z"/></svg>
