<svg version="1.1" xmlns="http://www.w3.org/2000/svg" width="32" height="32" viewBox="0 0 32 32">
<title>googleplus</title>
<path d="M10.218 25.233c-0.858-0.277-1.806-0.44-2.822-0.45-3.266-0.037-6.156 1.529-7.397 3.68v2.905h15.092c0.010-0.141 0.010-0.283 0.010-0.424 0-0.398-0.047-0.79-0.136-1.167-0.482-1.874-2.387-2.9-4.748-4.544zM12.092 10.712c-0.503-3.837-3.005-6.983-5.926-7.072-2.921-0.084-4.879 2.853-4.371 6.69 0.503 3.837 3.282 6.517 6.203 6.601 2.916 0.089 4.596-2.382 4.094-6.219zM0 16.334v8.653c1.665-0.921 3.691-1.487 5.968-1.487 0.686 0 1.314-0.016 1.968-0.016-0.864-0.838-1.56-1.56-1.56-2.827 0-0.754 0.241-1.471 0.576-2.115-0.34 0.026-0.691 0.042-1.052 0.042-2.507 0-4.507-0.853-5.9-2.251zM32.016 7.378v-8.025h-32.016v5.769c1.858-1.942 4.685-3.246 7.8-3.246 2.837 0 10.836 0 10.836 0l-2.424 2.544h-2.848c2.010 1.152 3.073 3.518 3.073 6.13 0 2.397-1.33 4.329-3.204 5.795-1.827 1.429-2.178 2.026-2.178 3.246 0 1.036 2.188 2.581 3.193 3.335 3.502 2.623 4.209 4.277 4.209 7.559 0 0.298-0.026 0.592-0.068 0.89h13.621v-21.494h-5.010v4.999h-2.502v-4.999h-4.999v-2.502h4.999v-4.999h2.502v4.999h5.015z"></path>
</svg>
