<svg version="1.1" xmlns="http://www.w3.org/2000/svg" width="32" height="32" viewBox="0 0 32 32">
<title>instagram</title>
<path d="M0-0.647v32.016h32.016v-32.016h-32.016zM6.341 15.591c0 3.119 0.016 3.497 0.072 4.722 0.050 1.134 0.244 1.756 0.406 2.166 0.216 0.544 0.469 0.931 0.884 1.341 0.409 0.406 0.806 0.663 1.353 0.872 0.416 0.159 1.037 0.35 2.188 0.4 1.238 0.056 1.616 0.069 4.763 0.069s3.519-0.012 4.762-0.069c1.147-0.050 1.772-0.241 2.188-0.4 0.547-0.216 0.941-0.466 1.353-0.875 0.409-0.406 0.669-0.797 0.881-1.341 0.163-0.409 0.353-1.025 0.406-2.166 0.056-1.228 0.069-1.6 0.069-4.716s-0.012-3.484-0.069-4.716c-0.050-1.134-0.244-1.756-0.406-2.166-0.216-0.544-0.469-0.931-0.884-1.341-0.409-0.406-0.806-0.662-1.353-0.872-0.416-0.159-1.038-0.35-2.188-0.4-1.241-0.056-1.619-0.072-4.766-0.075-3.147 0-3.519 0.013-4.762 0.069-1.147 0.050-1.772 0.241-2.188 0.4-0.547 0.216-0.941 0.466-1.353 0.875-0.409 0.406-0.669 0.797-0.881 1.341-0.162 0.409-0.353 1.025-0.406 2.166-0.059 1.228-0.069 1.597-0.069 4.716zM4.287 20.406c-0.056-1.247-0.069-1.644-0.069-4.813s0.013-3.569 0.075-4.819c0.056-1.241 0.259-2.091 0.547-2.834 0.3-0.766 0.703-1.419 1.359-2.066 0.65-0.644 1.309-1.041 2.091-1.328 0.747-0.287 1.609-0.487 2.862-0.547 1.256-0.056 1.659-0.069 4.859-0.069s3.603 0.013 4.859 0.069c1.253 0.056 2.109 0.256 2.859 0.544 0.775 0.297 1.431 0.697 2.087 1.347 0.653 0.647 1.059 1.3 1.359 2.066 0.291 0.738 0.494 1.591 0.547 2.834 0.056 1.247 0.069 1.644 0.069 4.813s-0.012 3.569-0.069 4.812c-0.056 1.241-0.259 2.091-0.547 2.834-0.3 0.766-0.703 1.419-1.359 2.066-0.653 0.653-1.313 1.050-2.091 1.35-0.747 0.288-1.606 0.488-2.859 0.544-1.256 0.056-1.659 0.069-4.859 0.069s-3.603-0.012-4.863-0.069c-1.253-0.056-2.109-0.256-2.859-0.544-0.778-0.303-1.438-0.7-2.091-1.353-0.659-0.647-1.059-1.3-1.362-2.072-0.291-0.738-0.494-1.591-0.547-2.834zM12.109 16.172c0 2.169 1.744 3.928 3.891 3.928s3.891-1.759 3.891-3.928-1.744-3.928-3.891-3.928-3.891 1.759-3.891 3.928zM16 10.116c3.313 0 6 2.713 6 6.056s-2.688 6.056-6 6.056-6-2.712-6-6.056 2.688-6.056 6-6.056zM21.575 8.178c0.775 0 1.4 0.631 1.4 1.412s-0.625 1.412-1.4 1.412-1.403-0.628-1.403-1.412 0.625-1.412 1.403-1.412z"></path>
</svg>
