<?xml version="1.0" encoding="utf-8"?>
<svg version="1.1" id="Layer_1" xmlns="http://www.w3.org/2000/svg" xmlns:xlink="http://www.w3.org/1999/xlink" x="0px" y="0px"
	 viewBox="0 0 32 32" style="enable-background:new 0 0 32 32;" xml:space="preserve">
<title>instagram</title>
<path d="M0,0v32h32V0C32,0,0,0,0,0z M6.3,16.2c0,3.1,0,3.5,0.1,4.7c0.1,1.1,0.2,1.8,0.4,2.2C7,23.7,7.3,24,7.7,24.5
	c0.4,0.4,0.8,0.7,1.4,0.9c0.4,0.2,1,0.4,2.2,0.4c1.2,0.1,1.6,0.1,4.8,0.1s3.5,0,4.8-0.1c1.1,0,1.8-0.2,2.2-0.4
	c0.5-0.2,0.9-0.5,1.4-0.9c0.4-0.4,0.7-0.8,0.9-1.3c0.2-0.4,0.4-1,0.4-2.2c0.1-1.2,0.1-1.6,0.1-4.7s0-3.5-0.1-4.7
	c0-1.1-0.2-1.8-0.4-2.2C25,8.8,24.7,8.4,24.3,8c-0.4-0.4-0.8-0.7-1.4-0.9c-0.4-0.2-1-0.3-2.2-0.4c-1.2-0.1-1.6-0.1-4.8-0.1
	c-3.1,0-3.5,0-4.8,0.1C10.1,6.8,9.5,7,9,7.1C8.5,7.3,8.1,7.6,7.7,8C7.3,8.4,7,8.8,6.8,9.3c-0.2,0.4-0.4,1-0.4,2.2
	C6.3,12.7,6.3,13.1,6.3,16.2z M4.3,21c-0.1-1.2-0.1-1.6-0.1-4.8s0-3.6,0.1-4.8c0.1-1.2,0.3-2.1,0.5-2.8c0.3-0.8,0.7-1.4,1.4-2.1
	c0.7-0.6,1.3-1,2.1-1.3C9,4.9,9.9,4.7,11.1,4.6c1.3-0.1,1.7-0.1,4.9-0.1s3.6,0,4.9,0.1c1.3,0.1,2.1,0.3,2.9,0.5
	c0.8,0.3,1.4,0.7,2.1,1.3c0.7,0.6,1.1,1.3,1.4,2.1c0.3,0.7,0.5,1.6,0.5,2.8c0.1,1.2,0.1,1.6,0.1,4.8s0,3.6-0.1,4.8
	c-0.1,1.2-0.3,2.1-0.5,2.8c-0.3,0.8-0.7,1.4-1.4,2.1c-0.7,0.7-1.3,1-2.1,1.4c-0.7,0.3-1.6,0.5-2.9,0.5c-1.3,0.1-1.7,0.1-4.9,0.1
	s-3.6,0-4.9-0.1c-1.3-0.1-2.1-0.3-2.9-0.5C7.5,27,6.8,26.6,6.2,26c-0.7-0.6-1.1-1.3-1.4-2.1C4.5,23.1,4.3,22.3,4.3,21L4.3,21z
	 M12.1,16.8c0,2.2,1.7,3.9,3.9,3.9s3.9-1.8,3.9-3.9s-1.7-3.9-3.9-3.9S12.1,14.6,12.1,16.8z M16,10.8c3.3,0,6,2.7,6,6.1
	s-2.7,6.1-6,6.1s-6-2.7-6-6.1S12.7,10.8,16,10.8z M21.6,8.8c0.8,0,1.4,0.6,1.4,1.4s-0.6,1.4-1.4,1.4s-1.4-0.6-1.4-1.4
	S20.8,8.8,21.6,8.8z"/>
</svg>
