<svg version="1.1" xmlns="http://www.w3.org/2000/svg" width="32" height="32" viewBox="0 0 32 32">
<title>linkedin</title>
<path d="M0-0.647v32.016h32.016v-32.016h-32.016zM10.44 24.598h-4.242v-13.648h4.242v13.648zM8.291 9.275c-1.34 0-2.205-0.949-2.205-2.121 0-1.2 0.893-2.121 2.26-2.121s2.205 0.921 2.233 2.121c-0 1.172-0.865 2.121-2.289 2.121zM25.929 24.598h-4.242v-7.564c0-1.758-0.614-2.958-2.149-2.958-1.172 0-1.87 0.809-2.177 1.591-0.112 0.279-0.14 0.67-0.14 1.061v7.87h-4.242v-9.294c0-1.702-0.056-3.126-0.111-4.354h3.684l0.196 1.898h0.084c0.558-0.893 1.926-2.205 4.215-2.205 2.791 0 4.884 1.87 4.884 5.889v8.066z"></path>
</svg>
