<?xml version="1.0" encoding="utf-8"?>
<svg version="1.1" id="Layer_1" xmlns="http://www.w3.org/2000/svg" xmlns:xlink="http://www.w3.org/1999/xlink" x="0px" y="0px"
	 viewBox="0 0 32 32" style="enable-background:new 0 0 32 32;" xml:space="preserve">
<title>linkedin</title>
<path d="M0,0v32h32V0C32,0,0,0,0,0z M10.4,25.2H6.2V11.6h4.2V25.2z M8.3,9.9C7,9.9,6.1,9,6.1,7.8c0-1.2,0.9-2.1,2.3-2.1
	s2.2,0.9,2.2,2.1C10.6,9,9.7,9.9,8.3,9.9L8.3,9.9z M25.9,25.2h-4.2v-7.6c0-1.8-0.6-3-2.1-3c-1.2,0-1.9,0.8-2.2,1.6
	c-0.1,0.3-0.1,0.7-0.1,1.1v7.9H13v-9.3c0-1.7-0.1-3.1-0.1-4.4h3.7l0.2,1.9h0.1c0.6-0.9,1.9-2.2,4.2-2.2c2.8,0,4.9,1.9,4.9,5.9
	L25.9,25.2L25.9,25.2z"/>
</svg>
