<?xml version="1.0" encoding="utf-8"?>
<svg version="1.1" id="Layer_1" xmlns="http://www.w3.org/2000/svg" xmlns:xlink="http://www.w3.org/1999/xlink" x="0px" y="0px"
	 viewBox="0 0 32 32" style="enable-background:new 0 0 32 32;" xml:space="preserve">
<title>pinterest</title>
<path d="M0,0v32h32V0C32,0,0,0,0,0z M25.8,12.3c-0.1,1.1-0.2,2.2-0.5,3.3c-0.4,1.4-1.1,2.7-2.1,3.8c-1.2,1.3-2.7,2.1-4.5,2.3
	c-1.1,0.1-2.2-0.1-3.2-0.7c-0.4-0.3-0.8-0.6-1.1-1c0,0,0,0-0.1-0.1c-0.1,0.4-0.2,0.7-0.3,1.1c-0.3,1-0.5,2-0.8,2.9
	c-0.3,1.2-1,2.3-1.6,3.4c-0.3,0.4-0.6,0.9-0.9,1.3c-0.1,0.1-0.1,0.1-0.3,0.1c-0.1,0-0.1-0.1-0.2-0.2c-0.1-1.1-0.2-2.2-0.2-3.3
	c0-1,0.2-2.1,0.5-3.1c0.6-2.3,1.1-4.6,1.6-7c0-0.1,0-0.2,0-0.3c-0.5-1.3-0.6-2.7,0-4.1c0.3-0.7,0.8-1.3,1.5-1.7
	c0.8-0.4,1.6-0.3,2.3,0.3c0.4,0.3,0.6,0.8,0.6,1.3c0.1,0.7,0,1.4-0.2,2.1c-0.3,1-0.6,2-0.9,3c-0.1,0.3-0.2,0.7-0.2,1
	c0,1.2,0.8,2.1,2,2.3c1.1,0.1,2-0.3,2.7-1c0.7-0.7,1.2-1.6,1.6-2.6c0.5-1.5,0.8-3.1,0.7-4.7c-0.2-2.4-1.7-4.2-4-4.8
	c-1.9-0.5-3.8-0.3-5.6,0.6c-1.9,1-3,2.6-3.4,4.7c-0.2,0.9-0.2,1.8,0,2.8c0.1,0.6,0.4,1.1,0.8,1.5c0.2,0.3,0.3,0.6,0.2,0.9
	c-0.1,0.4-0.2,0.7-0.3,1.1C9.8,18,9.5,18.1,9.1,18c-1-0.4-1.8-1.2-2.3-2.2c-0.5-0.9-0.7-1.9-0.7-3c0-3.3,1.4-5.8,4-7.6
	c1.4-1,3-1.5,4.6-1.7c1.1-0.1,2.3-0.2,3.4,0c2.9,0.5,5.2,1.9,6.7,4.5C25.6,9.3,25.9,10.8,25.8,12.3z"/>
</svg>
