<svg version="1.1" xmlns="http://www.w3.org/2000/svg" width="32" height="32" viewBox="0 0 32 32">
<title>pinterest</title>
<path d="M0-0.647v32.016h32.016v-32.016h-32.016zM25.819 11.688c-0.069 1.11-0.216 2.2-0.54 3.261-0.432 1.414-1.090 2.701-2.102 3.781-1.218 1.306-2.701 2.072-4.488 2.259-1.129 0.118-2.2-0.059-3.182-0.658-0.422-0.265-0.795-0.589-1.061-1.021-0.010-0.020-0.029-0.029-0.059-0.059-0.098 0.373-0.187 0.727-0.275 1.080-0.255 0.982-0.491 1.964-0.756 2.936-0.344 1.228-0.953 2.328-1.65 3.378-0.295 0.442-0.619 0.864-0.933 1.296-0.069 0.088-0.137 0.147-0.265 0.118-0.118-0.029-0.137-0.128-0.157-0.226-0.147-1.080-0.236-2.161-0.206-3.261 0.020-1.041 0.216-2.062 0.462-3.064 0.56-2.318 1.1-4.645 1.65-6.973 0.020-0.079 0-0.177-0.029-0.255-0.501-1.345-0.579-2.71-0.049-4.066 0.295-0.737 0.756-1.345 1.503-1.679 0.795-0.354 1.581-0.334 2.278 0.255 0.383 0.334 0.55 0.786 0.629 1.277 0.108 0.717-0.049 1.414-0.246 2.092-0.285 1.012-0.599 2.013-0.884 3.025-0.088 0.334-0.187 0.678-0.196 1.012-0.039 1.159 0.835 2.131 1.994 2.259 1.080 0.118 1.974-0.275 2.73-1.012 0.737-0.717 1.218-1.601 1.561-2.553 0.55-1.522 0.776-3.103 0.658-4.724-0.187-2.445-1.66-4.184-4.036-4.773-1.935-0.481-3.83-0.324-5.608 0.638-1.866 1.012-2.976 2.603-3.418 4.665-0.196 0.913-0.216 1.846 0.020 2.76 0.147 0.56 0.403 1.070 0.795 1.512 0.236 0.265 0.314 0.55 0.206 0.894-0.108 0.354-0.187 0.717-0.275 1.080-0.108 0.403-0.393 0.55-0.776 0.393-1.041-0.442-1.778-1.208-2.269-2.21-0.462-0.943-0.668-1.944-0.687-2.976-0.039-3.27 1.404-5.784 4.036-7.65 1.385-0.982 2.956-1.493 4.626-1.719 1.129-0.147 2.269-0.177 3.398 0.010 2.907 0.471 5.195 1.886 6.658 4.498 0.766 1.355 1.041 2.838 0.943 4.4z"></path>
</svg>
