<?xml version="1.0" encoding="utf-8"?>
<svg version="1.1" id="Layer_1" xmlns="http://www.w3.org/2000/svg" xmlns:xlink="http://www.w3.org/1999/xlink" x="0px" y="0px"
	 viewBox="0 0 32 32" style="enable-background:new 0 0 32 32;" xml:space="preserve">
<title>reddit</title>
<path d="M20.2,15.9c-1.1,0-1.9,0.9-1.9,2c0,1.1,0.8,1.9,1.9,1.9c1.1,0,2-0.8,2-1.9C22.2,16.8,21.3,15.9,20.2,15.9z M19.8,22.5
	c-0.4,0.3-0.8,0.5-1.3,0.7c-1.2,0.5-2.4,0.5-3.6,0.4c-1-0.1-2-0.4-2.8-1.1c-0.3-0.2-0.5-0.2-0.8,0c-0.2,0.2-0.2,0.5,0.1,0.8
	c0.2,0.2,0.4,0.3,0.6,0.5c1.2,0.7,2.5,0.9,3.8,1c0.6-0.1,1.1-0.1,1.7-0.2c1.1-0.2,2.1-0.5,2.9-1.3c0.3-0.2,0.3-0.5,0.1-0.8
	C20.4,22.3,20.1,22.3,19.8,22.5L19.8,22.5z M14,17.8c0-1.1-0.9-1.9-2-1.9c-1.1,0-1.9,0.9-1.9,2c0,1.1,0.8,1.9,1.9,1.9
	C13.1,19.8,14,18.9,14,17.8L14,17.8z M0,0v32h32V0C32,0,0,0,0,0z M29.9,15.8c0,1-0.5,1.8-1.3,2.5c-0.2,0.1-0.2,0.2-0.2,0.5
	c0.2,1.8-0.4,3.4-1.6,4.8c-1.3,1.6-3,2.6-4.9,3.2c-4.6,1.5-9.1,1.4-13.4-0.7c-1.6-0.8-3-1.9-4-3.4c-0.8-1.2-1.2-2.6-1-4.1
	c0-0.2-0.1-0.3-0.2-0.4c-1-0.9-1.4-1.9-1.1-3.2c0.3-1.3,1.1-2.1,2.4-2.4c0.9-0.2,1.8,0,2.6,0.5c0.1,0.1,0.3,0.1,0.3,0.1
	c2.3-1.4,4.8-2,7.4-2.1c0.5,0,0.8-0.2,0.9-0.7c0.6-1.8,1.2-3.6,1.9-5.3c0-0.1,0.1-0.2,0.1-0.4c1.8,0.4,3.6,0.9,5.4,1.3
	c0.4-0.8,0.9-1.3,1.7-1.5c1.4-0.4,2.9,0.5,3.2,2c0.3,1.4-0.6,2.9-2.1,3.1c-1.4,0.3-2.8-0.8-3-2.2C23,7,23,6.9,22.7,6.8
	c-1.4-0.3-2.8-0.6-4.2-1c-0.6,1.7-1.2,3.4-1.8,5.1c0.4,0,0.9,0.1,1.3,0.1c2.3,0.2,4.4,0.9,6.4,2.1c0.2,0.1,0.3,0,0.4-0.1
	c1.1-0.7,2.2-0.8,3.4-0.2C29.3,13.4,29.9,14.5,29.9,15.8L29.9,15.8z"/>
</svg>
