<svg version="1.1" xmlns="http://www.w3.org/2000/svg" width="32" height="32" viewBox="0 0 32 32">
<title>reddit</title>
<path d="M20.203 15.246c-1.067 0-1.93 0.874-1.946 1.957-0.010 1.083 0.842 1.946 1.93 1.946 1.099 0 1.957-0.827 1.967-1.92 0.005-1.083-0.868-1.983-1.951-1.983zM19.848 21.821c-0.413 0.272-0.821 0.544-1.276 0.727-1.156 0.466-2.365 0.544-3.594 0.398-1.025-0.12-1.993-0.398-2.794-1.104-0.267-0.23-0.549-0.241-0.753-0.021-0.22 0.22-0.204 0.539 0.063 0.779 0.194 0.173 0.403 0.33 0.628 0.476 1.172 0.727 2.469 0.947 3.829 0.983 0.56-0.052 1.135-0.084 1.674-0.183 1.067-0.183 2.051-0.549 2.882-1.266 0.272-0.225 0.303-0.549 0.099-0.779-0.199-0.214-0.471-0.194-0.759-0.010zM13.962 17.202c-0.010-1.057-0.91-1.946-1.967-1.946-1.083 0-1.93 0.874-1.93 1.977 0.010 1.088 0.842 1.909 1.946 1.909 1.099 0 1.962-0.863 1.951-1.941zM0-0.647v32.016h32.016v-32.016h-32.016zM29.887 15.136c-0.021 1.020-0.466 1.847-1.276 2.464-0.173 0.131-0.22 0.246-0.194 0.466 0.183 1.826-0.424 3.39-1.59 4.76-1.329 1.554-3.013 2.579-4.923 3.228-4.556 1.543-9.050 1.407-13.424-0.67-1.606-0.764-2.977-1.857-3.96-3.369-0.811-1.24-1.167-2.6-0.963-4.080 0.037-0.22-0.099-0.267-0.22-0.366-1.025-0.853-1.423-1.946-1.13-3.243 0.282-1.266 1.104-2.087 2.365-2.396 0.947-0.241 1.826-0.047 2.637 0.507 0.084 0.063 0.267 0.11 0.345 0.063 2.281-1.36 4.76-2.019 7.397-2.14 0.549-0.021 0.753-0.22 0.921-0.717 0.591-1.784 1.229-3.557 1.852-5.32 0.047-0.11 0.084-0.22 0.141-0.356 1.8 0.434 3.573 0.853 5.367 1.276 0.366-0.779 0.926-1.308 1.747-1.533 1.444-0.403 2.903 0.497 3.243 1.977 0.324 1.433-0.633 2.867-2.113 3.134-1.433 0.267-2.841-0.753-3.024-2.213-0.037-0.267-0.12-0.387-0.398-0.439-1.381-0.314-2.757-0.643-4.169-0.994-0.607 1.705-1.198 3.39-1.8 5.127 0.434 0.047 0.853 0.073 1.266 0.12 2.286 0.241 4.447 0.884 6.414 2.087 0.183 0.12 0.282 0.021 0.413-0.063 1.067-0.732 2.213-0.842 3.369-0.241 1.161 0.596 1.742 1.616 1.705 2.93z"></path>
</svg>
