<svg version="1.1" xmlns="http://www.w3.org/2000/svg" width="32" height="32" viewBox="0 0 32 32">
<title>snapchat</title>
<path d="M21.809 31.369h10.206v-32.016h-32.016v32.016h15.309zM27.813 21.772l-0.028 0.347c-0.006 0.059-0.019 0.119-0.044 0.175-0.225 0.519-1.262 0.922-3.084 1.203-0.116 0.019-0.188 0.353-0.253 0.65-0.038 0.169-0.078 0.353-0.134 0.547-0.063 0.212-0.212 0.325-0.438 0.325h-0.028c-0.128 0-0.3-0.022-0.519-0.063-0.369-0.072-0.781-0.137-1.306-0.137-0.306 0-0.622 0.028-0.938 0.078-0.637 0.103-1.163 0.472-1.772 0.9l-0.003 0.003c-0.847 0.587-1.797 1.253-3.231 1.253-0.053 0-0.109 0-0.178-0.003-0.041 0.003-0.081 0.003-0.122 0.003-1.434 0-2.388-0.669-3.228-1.256l-0.003-0.003c-0.609-0.428-1.137-0.797-1.772-0.9-0.319-0.053-0.634-0.078-0.941-0.078-0.55 0-0.988 0.084-1.306 0.147-0.228 0.044-0.384 0.072-0.519 0.072-0.091 0-0.366 0-0.466-0.334-0.056-0.191-0.097-0.372-0.134-0.55-0.066-0.3-0.141-0.637-0.253-0.656-1.822-0.278-2.859-0.684-3.084-1.203-0.025-0.059-0.041-0.125-0.044-0.191l-0.013-0.331 0.328-0.053c3.334-0.544 4.831-3.928 4.894-4.072l0.006-0.019c0.191-0.381 0.231-0.709 0.119-0.969-0.209-0.491-0.934-0.719-1.416-0.872h-0.003c-0.128-0.041-0.244-0.075-0.338-0.113-1.038-0.406-1.188-0.85-1.131-1.15 0.041-0.203 0.191-0.387 0.422-0.525 0.191-0.113 0.419-0.175 0.625-0.175 0.125 0 0.234 0.022 0.331 0.066 0.434 0.2 0.825 0.303 1.156 0.303s0.519-0.103 0.594-0.159c-0.012-0.194-0.025-0.406-0.041-0.647-0.103-1.606-0.228-3.606 0.294-4.766 1.556-3.459 4.853-3.728 5.828-3.728 0.025 0 0.369-0.003 0.412-0.003 0.019 0 0.041 0 0.063 0 0.975 0 4.278 0.269 5.837 3.728 0.522 1.159 0.394 3.159 0.294 4.766l-0.009 0.141c-0.012 0.178-0.022 0.347-0.031 0.509 0.072 0.050 0.238 0.144 0.528 0.156h0.003c0.319-0.012 0.684-0.116 1.091-0.303 0.141-0.066 0.3-0.081 0.406-0.081 0.159 0 0.322 0.031 0.456 0.088l0.006 0.003c0.391 0.137 0.644 0.422 0.65 0.722 0.006 0.4-0.375 0.753-1.137 1.053-0.094 0.037-0.203 0.072-0.341 0.113h-0.003c-0.481 0.153-1.206 0.381-1.416 0.872-0.113 0.259-0.072 0.587 0.119 0.969l0.006 0.019c0.044 0.1 0.441 0.991 1.247 1.922 1.041 1.203 2.269 1.925 3.647 2.153l0.344 0.056z"></path>
</svg>
