<?xml version="1.0" encoding="utf-8"?>
<svg version="1.1" id="Layer_1" xmlns="http://www.w3.org/2000/svg" xmlns:xlink="http://www.w3.org/1999/xlink" x="0px" y="0px"
	 viewBox="0 0 32 32" style="enable-background:new 0 0 32 32;" xml:space="preserve">
<title>snapchat</title>
<path d="M21.8,32H32V0H0v32h15.3H21.8z M27.8,22.4l0,0.3c0,0.1,0,0.1,0,0.2c-0.2,0.5-1.3,0.9-3.1,1.2c-0.1,0-0.2,0.4-0.3,0.6
	c0,0.2-0.1,0.4-0.1,0.5c-0.1,0.2-0.2,0.3-0.4,0.3h0c-0.1,0-0.3,0-0.5-0.1c-0.4-0.1-0.8-0.1-1.3-0.1c-0.3,0-0.6,0-0.9,0.1
	c-0.6,0.1-1.2,0.5-1.8,0.9l0,0c-0.8,0.6-1.8,1.3-3.2,1.3c-0.1,0-0.1,0-0.2,0c0,0-0.1,0-0.1,0c-1.4,0-2.4-0.7-3.2-1.3l0,0
	c-0.6-0.4-1.1-0.8-1.8-0.9c-0.3-0.1-0.6-0.1-0.9-0.1c-0.6,0-1,0.1-1.3,0.1c-0.2,0-0.4,0.1-0.5,0.1c-0.1,0-0.4,0-0.5-0.3
	c-0.1-0.2-0.1-0.4-0.1-0.5c-0.1-0.3-0.1-0.6-0.3-0.7c-1.8-0.3-2.9-0.7-3.1-1.2c0-0.1,0-0.1,0-0.2l0-0.3l0.3-0.1
	c3.3-0.5,4.8-3.9,4.9-4.1l0,0c0.2-0.4,0.2-0.7,0.1-1c-0.2-0.5-0.9-0.7-1.4-0.9h0c-0.1,0-0.2-0.1-0.3-0.1c-1-0.4-1.2-0.9-1.1-1.2
	c0-0.2,0.2-0.4,0.4-0.5c0.2-0.1,0.4-0.2,0.6-0.2c0.1,0,0.2,0,0.3,0.1c0.4,0.2,0.8,0.3,1.2,0.3s0.5-0.1,0.6-0.2c0-0.2,0-0.4,0-0.6
	c-0.1-1.6-0.2-3.6,0.3-4.8c1.6-3.5,4.9-3.7,5.8-3.7c0,0,0.4,0,0.4,0c0,0,0,0,0.1,0c1,0,4.3,0.3,5.8,3.7c0.5,1.2,0.4,3.2,0.3,4.8
	l0,0.1c0,0.2,0,0.3,0,0.5c0.1,0.1,0.2,0.1,0.5,0.2h0c0.3,0,0.7-0.1,1.1-0.3c0.1-0.1,0.3-0.1,0.4-0.1c0.2,0,0.3,0,0.5,0.1l0,0
	c0.4,0.1,0.6,0.4,0.6,0.7c0,0.4-0.4,0.8-1.1,1.1c-0.1,0-0.2,0.1-0.3,0.1h0c-0.5,0.2-1.2,0.4-1.4,0.9c-0.1,0.3-0.1,0.6,0.1,1l0,0
	c0,0.1,0.4,1,1.2,1.9c1,1.2,2.3,1.9,3.6,2.2L27.8,22.4L27.8,22.4z"/>
</svg>
