<?xml version="1.0" encoding="utf-8"?>
<svg version="1.1" id="Layer_1" xmlns="http://www.w3.org/2000/svg" xmlns:xlink="http://www.w3.org/1999/xlink" x="0px" y="0px"
	 viewBox="0 0 32 32" style="enable-background:new 0 0 32 32;" xml:space="preserve">
<title>tumblr</title>
<path d="M0,0v32h32V0C32,0,0,0,0,0z M22.2,26.8c-1.4,0.4-2.7,0.6-4.2,0.6c-1.1-0.1-2.2-0.2-3.3-0.7c-1.6-0.7-2.5-1.9-2.8-3.6
	c-0.1-0.3-0.1-0.6-0.1-0.9c0-1.4,0-2.7,0-4c0-1.5,0-3,0-4.6c-0.8,0-1.6,0-2.3,0c0-1.4,0-2.7,0-4c0.7,0.1,1.4-0.2,2-0.5
	c1.2-0.7,1.9-1.9,2.2-3.3c0.1-0.3,0.1-0.6,0.2-0.9c0-0.2,0.1-0.2,0.3-0.2c0.9,0,1.8,0,2.8,0c0.2,0,0.2,0.2,0.2,0.3
	c0,1.4,0,2.8,0,4.2c0,0.1,0,0.3,0,0.4c1.7,0,3.4,0,5.1,0c0,1.4,0,2.7,0,4c-1.7,0-3.4,0-5,0c0,0.2,0,0.3,0,0.4c0,1.9,0,3.8,0,5.7
	c0,0.6,0.1,1.2,0.2,1.8c0,0.2,0.2,0.4,0.3,0.6c0.7,0.7,1.7,0.8,2.6,0.6c0.6-0.2,1.2-0.3,1.8-0.5c0.1,0,0.2-0.1,0.3-0.1
	c0,0.1,0,0.2,0,0.3c0,1.4,0,2.7,0,4C22.5,26.7,22.4,26.8,22.2,26.8L22.2,26.8z"/>
</svg>
