<svg version="1.1" xmlns="http://www.w3.org/2000/svg" width="32" height="32" viewBox="0 0 32 32">
<title>tumblr</title>
<path d="M0-0.647v32.016h32.016v-32.016h-32.016zM22.175 26.191c-1.37 0.4-2.741 0.628-4.169 0.552-1.123-0.057-2.227-0.247-3.274-0.704-1.599-0.685-2.455-1.942-2.76-3.617-0.057-0.285-0.057-0.59-0.076-0.876-0.019-1.351-0.019-2.703-0.019-4.035 0-1.523 0-3.046 0-4.606-0.799 0-1.561 0-2.341 0 0-1.351 0-2.665 0-4.035 0.742 0.095 1.389-0.171 1.999-0.533 1.237-0.742 1.922-1.884 2.227-3.274 0.057-0.305 0.114-0.59 0.152-0.895 0.019-0.171 0.114-0.228 0.286-0.228 0.914 0 1.846 0 2.76 0 0.247 0 0.228 0.152 0.228 0.305 0 1.409 0 2.817 0 4.226 0 0.133 0.019 0.266 0.038 0.419 1.694 0 3.35 0 5.063 0 0 1.351 0 2.665 0 4.016-1.694 0-3.35 0-5.044 0-0.019 0.152-0.038 0.286-0.038 0.4 0 1.903-0.019 3.826 0 5.729 0 0.59 0.076 1.199 0.171 1.789 0.038 0.209 0.171 0.419 0.324 0.571 0.742 0.704 1.656 0.837 2.608 0.59 0.59-0.152 1.18-0.343 1.789-0.514 0.095-0.038 0.209-0.057 0.343-0.095 0 0.133 0.019 0.247 0.019 0.343 0 1.351 0 2.703 0 4.035 0.019 0.266-0.038 0.381-0.285 0.438z"></path>
</svg>
