<svg version="1.1" xmlns="http://www.w3.org/2000/svg" width="32" height="32" viewBox="0 0 32 32">
<title>twitter</title>
<path d="M0-0.647v32.016h32.016v-32.016h-32.016zM25.552 10.125c0 0.227 0 0.416 0 0.643 0 6.615-5.027 14.25-14.25 14.25-2.835 0-5.481-0.832-7.673-2.268 0.378 0.038 0.794 0.076 1.21 0.076 2.344 0 4.498-0.794 6.237-2.155-2.192-0.038-4.044-1.474-4.687-3.477 0.302 0.076 0.605 0.076 0.945 0.076 0.454 0 0.907-0.076 1.323-0.189-2.306-0.454-4.007-2.495-4.007-4.914 0-0.038 0-0.038 0-0.076 0.68 0.378 1.436 0.605 2.268 0.643-1.361-0.907-2.23-2.419-2.23-4.158 0-0.907 0.265-1.777 0.68-2.533 2.457 3.024 6.161 5.027 10.319 5.254-0.076-0.378-0.113-0.756-0.113-1.134 0-2.759 2.23-5.027 5.027-5.027 1.436 0 2.759 0.605 3.666 1.588 1.134-0.227 2.23-0.643 3.175-1.21-0.378 1.172-1.172 2.155-2.192 2.759 1.021-0.113 1.966-0.378 2.873-0.794-0.718 1.058-1.588 1.928-2.57 2.646z"></path>
</svg>
