<svg version="1.1" xmlns="http://www.w3.org/2000/svg" width="30" height="32" viewBox="0 0 30 32">
<title>vimeo2</title>
<path d="M31.694-0.617h-31.694v32.109h32v-32.109c0 0-0.072 0-3 0h2.694zM26.925 10.042c-0.1 2.253-1.675 5.347-4.719 9.272-3.141 4.113-5.806 6.156-7.975 6.156-1.347 0-2.487-1.244-3.419-3.741-0.625-2.294-1.241-4.578-1.872-6.866-0.688-2.497-1.428-3.741-2.225-3.741-0.175 0-0.781 0.366-1.813 1.094l-1.087-1.403c1.141-1.003 2.272-2.012 3.375-3.013 1.525-1.319 2.666-2.013 3.425-2.084 1.8-0.181 2.906 1.059 3.325 3.694 0.447 2.85 0.766 4.619 0.934 5.319 0.519 2.366 1.088 3.544 1.712 3.544 0.481 0 1.212-0.766 2.181-2.303s1.488-2.703 1.559-3.503c0.134-1.325-0.381-1.988-1.559-1.988-0.559 0-1.125 0.125-1.712 0.384 1.137-3.734 3.309-5.556 6.516-5.447 2.375 0.063 3.494 1.603 3.353 4.625v0z"></path>
</svg>
