<?xml version="1.0" encoding="utf-8"?>
<svg version="1.1" id="Layer_1" xmlns="http://www.w3.org/2000/svg" xmlns:xlink="http://www.w3.org/1999/xlink" x="0px" y="0px"
	 viewBox="0 0 32 32" style="enable-background:new 0 0 32 32;" xml:space="preserve">
<title>vimeo2</title>
<path d="M31.7,0H0v32h32V0c0,0-0.1,0-3,0C29,0,31.7,0,31.7,0z M26.9,10.6c-0.1,2.2-1.7,5.3-4.7,9.2c-3.1,4.1-5.8,6.1-8,6.1
	c-1.3,0-2.5-1.2-3.4-3.7c-0.6-2.3-1.2-4.6-1.9-6.8c-0.7-2.5-1.4-3.7-2.2-3.7c-0.2,0-0.8,0.4-1.8,1.1l-1.1-1.4c1.1-1,2.3-2,3.4-3
	c1.5-1.3,2.7-2,3.4-2.1c1.8-0.2,2.9,1.1,3.3,3.7c0.4,2.8,0.8,4.6,0.9,5.3c0.5,2.4,1.1,3.5,1.7,3.5c0.5,0,1.2-0.8,2.2-2.3
	c1-1.5,1.5-2.7,1.6-3.5c0.1-1.3-0.4-2-1.6-2c-0.6,0-1.1,0.1-1.7,0.4c1.1-3.7,3.3-5.5,6.5-5.4C25.9,6.1,27.1,7.6,26.9,10.6L26.9,10.6
	L26.9,10.6z"/>
</svg>
