<?xml version="1.0" encoding="utf-8"?>
<svg version="1.1" id="Layer_1" xmlns="http://www.w3.org/2000/svg" xmlns:xlink="http://www.w3.org/1999/xlink" x="0px" y="0px"
	 viewBox="0 0 32 32" style="enable-background:new 0 0 32 32;" xml:space="preserve">
<title>youtube3</title>
<path d="M0,0v32h32V0C32,0,0,0,0,0z M26.6,14.7v1.8c0,2-0.2,3.9-0.2,3.9s-0.2,1.7-0.9,2.4c-0.8,1-1.7,1-2.1,1
	c-3,0.2-7.5,0.2-7.5,0.2s-5.6-0.1-7.3-0.2c-0.5-0.1-1.6-0.1-2.4-1c-0.6-0.7-0.8-2.4-0.8-2.4s-0.2-2-0.2-3.9v-1.8
	c0-2,0.2-3.9,0.2-3.9s0.2-1.7,0.8-2.4c0.8-1,1.7-1,2.1-1c3-0.2,7.5-0.2,7.5-0.2h0c0,0,4.5,0,7.5,0.2c0.4,0.1,1.3,0.1,2.1,1
	c0.6,0.7,0.9,2.4,0.9,2.4S26.6,12.7,26.6,14.7L26.6,14.7z M13.7,18.7l5.8-3.4l-5.8-3.4V18.7L13.7,18.7z"/>
</svg>
