<svg version="1.1" xmlns="http://www.w3.org/2000/svg" width="32" height="32" viewBox="0 0 32 32">
<title>youtube3</title>
<path d="M0-0.647v32.016h32.016v-32.016h-32.016zM26.625 14.019v1.831c0 1.959-0.212 3.913-0.212 3.913s-0.209 1.666-0.853 2.397c-0.816 0.962-1.728 0.969-2.147 1.025-2.997 0.241-7.503 0.25-7.503 0.25s-5.572-0.056-7.291-0.241c-0.478-0.103-1.55-0.072-2.366-1.034-0.641-0.731-0.85-2.397-0.85-2.397s-0.213-1.959-0.213-3.912v-1.831c0-1.959 0.213-3.912 0.213-3.912s0.206-1.666 0.85-2.397c0.816-0.963 1.728-0.969 2.147-1.025 2.997-0.247 7.5-0.247 7.5-0.247h0.009c0 0 4.5 0 7.5 0.247 0.419 0.056 1.331 0.063 2.147 1.025 0.641 0.731 0.85 2.397 0.85 2.397s0.216 1.959 0.219 3.912zM13.688 18.075l5.791-3.384-5.791-3.409v6.794z"></path>
</svg>
