<svg id="Layer_1" data-name="Layer 1" xmlns="http://www.w3.org/2000/svg" viewBox="0 0 262.71 262.71"><title>Instagram Logo</title><circle class="cls-1" cx="131.35" cy="131.35" r="131.35"/><path class="cls-2" d="M131.35,70c20,0,22.34.08,30.23.44,7.3.33,11.26,1.55,13.89,2.57a24.82,24.82,0,0,1,14.2,14.2c1,2.63,2.24,6.59,2.57,13.89.36,7.89.44,10.25.44,30.22s-.08,22.34-.44,30.23c-.33,7.3-1.55,11.25-2.57,13.89a24.82,24.82,0,0,1-14.2,14.2c-2.63,1-6.59,2.24-13.89,2.57-7.89.36-10.25.44-30.23.44s-22.34-.08-30.22-.44c-7.3-.33-11.26-1.55-13.89-2.57A24.82,24.82,0,0,1,73,175.47c-1-2.64-2.24-6.59-2.57-13.89-.36-7.89-.44-10.25-.44-30.23s.08-22.33.44-30.22C70.8,93.83,72,89.87,73,87.24A24.82,24.82,0,0,1,87.24,73c2.63-1,6.59-2.24,13.89-2.57,7.89-.36,10.25-.44,30.22-.44m0-13.48c-20.31,0-22.86.09-30.84.45a54.71,54.71,0,0,0-18.15,3.48A38.27,38.27,0,0,0,60.48,82.36c-1.85,4.75-3.11,10.19-3.48,18.15s-.45,10.53-.45,30.84.09,22.87.45,30.85a55,55,0,0,0,3.48,18.15,38.27,38.27,0,0,0,21.88,21.88c4.75,1.85,10.19,3.11,18.15,3.48s10.53.45,30.84.45,22.87-.09,30.85-.45,13.4-1.63,18.15-3.48a38.27,38.27,0,0,0,21.88-21.88,55,55,0,0,0,3.48-18.15c.36-8,.45-10.53.45-30.85s-.09-22.86-.45-30.84-1.63-13.4-3.48-18.15a38.27,38.27,0,0,0-21.88-21.88A54.71,54.71,0,0,0,162.2,57c-8-.36-10.53-.45-30.85-.45Z"/><path class="cls-2" d="M131.35,92.94a38.42,38.42,0,1,0,38.42,38.41A38.41,38.41,0,0,0,131.35,92.94Zm0,63.35a24.94,24.94,0,1,1,24.94-24.94A24.94,24.94,0,0,1,131.35,156.29Z"/><path class="cls-2" d="M180.26,91.42a9,9,0,1,1-9-9A9,9,0,0,1,180.26,91.42Z"/></svg>
