<svg xmlns="http://www.w3.org/2000/svg" viewBox="0 0 32 32" role="img"><title>Pinterest</title><desc>Find us on Pinterest</desc><path d="M0 0v32h32V0C32 0 0 0 0 0zM25.8 12.3c-0.1 1.1-0.2 2.2-0.5 3.3 -0.4 1.4-1.1 2.7-2.1 3.8 -1.2 1.3-2.7 2.1-4.5 2.3 -1.1 0.1-2.2-0.1-3.2-0.7 -0.4-0.3-0.8-0.6-1.1-1 0 0 0 0-0.1-0.1 -0.1 0.4-0.2 0.7-0.3 1.1 -0.3 1-0.5 2-0.8 2.9 -0.3 1.2-1 2.3-1.6 3.4 -0.3 0.4-0.6 0.9-0.9 1.3 -0.1 0.1-0.1 0.1-0.3 0.1 -0.1 0-0.1-0.1-0.2-0.2 -0.1-1.1-0.2-2.2-0.2-3.3 0-1 0.2-2.1 0.5-3.1 0.6-2.3 1.1-4.6 1.6-7 0-0.1 0-0.2 0-0.3 -0.5-1.3-0.6-2.7 0-4.1 0.3-0.7 0.8-1.3 1.5-1.7 0.8-0.4 1.6-0.3 2.3 0.3 0.4 0.3 0.6 0.8 0.6 1.3 0.1 0.7 0 1.4-0.2 2.1 -0.3 1-0.6 2-0.9 3 -0.1 0.3-0.2 0.7-0.2 1 0 1.2 0.8 2.1 2 2.3 1.1 0.1 2-0.3 2.7-1 0.7-0.7 1.2-1.6 1.6-2.6 0.5-1.5 0.8-3.1 0.7-4.7 -0.2-2.4-1.7-4.2-4-4.8 -1.9-0.5-3.8-0.3-5.6 0.6 -1.9 1-3 2.6-3.4 4.7 -0.2 0.9-0.2 1.8 0 2.8 0.1 0.6 0.4 1.1 0.8 1.5 0.2 0.3 0.3 0.6 0.2 0.9 -0.1 0.4-0.2 0.7-0.3 1.1C9.8 18 9.5 18.1 9.1 18c-1-0.4-1.8-1.2-2.3-2.2 -0.5-0.9-0.7-1.9-0.7-3 0-3.3 1.4-5.8 4-7.6 1.4-1 3-1.5 4.6-1.7 1.1-0.1 2.3-0.2 3.4 0 2.9 0.5 5.2 1.9 6.7 4.5C25.6 9.3 25.9 10.8 25.8 12.3z"/></svg>
