<svg xmlns="http://www.w3.org/2000/svg" viewBox="0 0 32 32" role="img"><title>tumblr</title><desc>Find us on tumblr</desc><path d="M0 0v32h32V0C32 0 0 0 0 0zM22.2 26.8c-1.4 0.4-2.7 0.6-4.2 0.6 -1.1-0.1-2.2-0.2-3.3-0.7 -1.6-0.7-2.5-1.9-2.8-3.6 -0.1-0.3-0.1-0.6-0.1-0.9 0-1.4 0-2.7 0-4 0-1.5 0-3 0-4.6 -0.8 0-1.6 0-2.3 0 0-1.4 0-2.7 0-4 0.7 0.1 1.4-0.2 2-0.5 1.2-0.7 1.9-1.9 2.2-3.3 0.1-0.3 0.1-0.6 0.2-0.9 0-0.2 0.1-0.2 0.3-0.2 0.9 0 1.8 0 2.8 0 0.2 0 0.2 0.2 0.2 0.3 0 1.4 0 2.8 0 4.2 0 0.1 0 0.3 0 0.4 1.7 0 3.4 0 5.1 0 0 1.4 0 2.7 0 4 -1.7 0-3.4 0-5 0 0 0.2 0 0.3 0 0.4 0 1.9 0 3.8 0 5.7 0 0.6 0.1 1.2 0.2 1.8 0 0.2 0.2 0.4 0.3 0.6 0.7 0.7 1.7 0.8 2.6 0.6 0.6-0.2 1.2-0.3 1.8-0.5 0.1 0 0.2-0.1 0.3-0.1 0 0.1 0 0.2 0 0.3 0 1.4 0 2.7 0 4C22.5 26.7 22.4 26.8 22.2 26.8L22.2 26.8z"/></svg>
