<svg xmlns="http://www.w3.org/2000/svg" viewBox="0 0 32 32" role="img"><title>Twitter</title><desc>Find us on Twitter</desc><path d="M0 0v32h32V0C32 0 0 0 0 0zM25.6 10.8c0 0.2 0 0.4 0 0.6 0 6.6-5 14.2-14.2 14.2 -2.8 0-5.5-0.8-7.7-2.3 0.4 0 0.8 0.1 1.2 0.1 2.3 0 4.5-0.8 6.2-2.2 -2.2 0-4-1.5-4.7-3.5 0.3 0.1 0.6 0.1 0.9 0.1 0.5 0 0.9-0.1 1.3-0.2 -2.3-0.5-4-2.5-4-4.9 0 0 0 0 0-0.1 0.7 0.4 1.4 0.6 2.3 0.6C5.6 12.5 4.7 11 4.7 9.2c0-0.9 0.3-1.8 0.7-2.5 2.5 3 6.2 5 10.3 5.3 -0.1-0.4-0.1-0.8-0.1-1.1 0-2.8 2.2-5 5-5 1.4 0 2.8 0.6 3.7 1.6 1.1-0.2 2.2-0.6 3.2-1.2 -0.4 1.2-1.2 2.2-2.2 2.8 1-0.1 2-0.4 2.9-0.8C27.4 9.2 26.5 10 25.6 10.8L25.6 10.8z"/></svg>
