<svg role="img" aria-labelledby="X-title X-desc" alt="See us on X" xmlns="http://www.w3.org/2000/svg" viewBox="0 0 548 550">
  <title id="X-title" >X (Twitter)</title>
  <desc id="X-desc">Find us on X (formerly Twitter)</desc>
  <path d="m548,550H0V0h548v550Zm-294.55-208.48c.8,1.12,1.33,1.86,1.85,2.61,34.08,49.75,68.17,99.49,102.2,149.28,1.07,1.56,2.14,2.13,4.04,2.12,45-.38,90-.69,134.99-1.02.85,0,1.7,0,2.97,0-58.56-86.51-116.77-172.5-175.03-258.55,49.14-62.8,98.18-125.48,147.51-188.53-1.41,0-2.23,0-3.06,0-21.25,0-42.5.03-63.75-.04-1.93,0-3.17.57-4.39,2.08-34.8,43.12-69.64,86.2-104.48,129.28-1.87,2.31-3.75,4.61-5.79,7.11-.71-.98-1.26-1.69-1.76-2.43-30.52-44.81-61.05-89.62-91.52-134.47-1.25-1.84-2.52-2.59-4.8-2.58-45.83.24-91.67.39-137.5.56-.69,0-1.37.1-2.36.18,55.58,81.96,110.96,163.63,166.39,245.35-52.63,67.29-105.16,134.46-158.03,202.05,1.37,0,2.17,0,2.98,0,21.67.16,43.33.29,65,.52,1.87.02,3.01-.56,4.16-2.01,36.35-45.82,72.75-91.61,109.14-137.4,3.67-4.61,7.34-9.22,11.23-14.1Z"/>
  <path d="m135.44,91.4c10.68.32,20.75.89,30.82.78,4.39-.05,6.74,1.59,9.12,5.07,78.4,114.78,156.9,229.49,235.38,344.22.46.68.9,1.37,1.51,2.31-.65.09-1.09.21-1.53.22-9.91.16-19.83.26-29.74.52-1.92.05-2.96-.6-4.02-2.14-79.34-115.35-158.73-230.67-238.11-345.99-1.03-1.49-2.06-2.99-3.43-4.98Z"/>
</svg>
