<?xml version="1.0" standalone="no"?>
<!DOCTYPE svg PUBLIC "-//W3C//DTD SVG 20010904//EN"
 "http://www.w3.org/TR/2001/REC-SVG-20010904/DTD/svg10.dtd">
<svg version="1.0" xmlns="http://www.w3.org/2000/svg"
 width="512.000000pt" height="512.000000pt" viewBox="0 0 512.000000 512.000000"
 preserveAspectRatio="xMidYMid meet">
<metadata>
Created by potrace 1.11, written by Peter Selinger 2001-2013
</metadata>
<g transform="translate(0.000000,512.000000) scale(0.100000,-0.100000)"
fill="#000000" stroke="none">
<path d="M2169 5115 c-3 -2 -49 -6 -104 -9 -100 -5 -155 -9 -295 -22 -41 -4
-88 -8 -105 -9 -71 -6 -173 -16 -205 -20 -19 -2 -62 -7 -95 -11 -33 -3 -71 -7
-85 -8 -14 -2 -56 -6 -93 -10 -37 -4 -76 -9 -85 -11 -9 -1 -44 -6 -77 -9 -86
-10 -177 -25 -182 -30 -3 -2 -4 -301 -3 -663 0 -362 1 -665 1 -673 -2 -66 10
-837 13 -875 2 -22 7 -65 10 -95 3 -30 8 -80 11 -110 4 -57 9 -91 26 -200 5
-36 12 -78 14 -95 6 -39 50 -234 71 -309 9 -32 18 -69 20 -82 22 -120 196
-530 297 -696 37 -62 121 -192 134 -208 7 -8 26 -33 43 -55 98 -125 348 -384
445 -461 63 -50 82 -65 106 -85 11 -9 35 -27 54 -40 19 -13 35 -27 35 -31 0
-5 6 -8 14 -8 8 0 16 -3 18 -7 7 -16 366 -265 402 -279 9 -3 71 32 151 85 148
99 197 133 205 141 3 3 30 23 60 45 244 174 521 437 670 634 14 18 35 45 46
59 110 138 271 437 350 650 50 135 143 459 160 561 5 30 19 110 29 161 4 19 8
49 10 65 3 17 7 50 10 75 7 50 10 86 20 209 4 47 9 96 12 110 8 47 14 2181 6
2182 -4 0 -17 2 -28 4 -11 2 -47 6 -80 11 -33 4 -67 8 -75 9 -8 1 -43 6 -78 9
-35 4 -72 9 -82 11 -18 3 -55 7 -182 20 -29 3 -73 8 -98 11 -25 3 -65 7 -90 9
-25 2 -70 7 -100 10 -78 8 -152 14 -245 20 -44 3 -105 8 -135 10 -70 7 -916
16 -921 10z m796 -190 c164 -9 252 -14 315 -20 146 -12 187 -16 235 -21 28 -3
66 -7 85 -9 107 -9 236 -23 290 -31 14 -1 52 -6 85 -9 33 -4 64 -10 68 -14 4
-5 10 -42 12 -84 2 -41 6 -102 9 -134 3 -32 8 -110 11 -173 3 -63 8 -142 10
-175 2 -33 7 -103 10 -155 3 -52 8 -124 10 -160 5 -79 13 -220 20 -340 l5 -90
-38 -1 c-20 -1 -725 -3 -1565 -4 l-1528 -3 6 102 c3 55 7 130 10 166 5 78 16
246 20 315 6 98 16 271 20 335 7 100 18 271 20 310 2 19 3 47 4 62 1 29 10 34
76 42 85 11 141 18 175 21 19 1 58 5 85 9 28 3 73 8 100 11 28 2 77 7 110 10
33 3 74 8 90 10 17 2 80 6 140 10 61 4 126 9 145 11 19 2 112 7 205 10 94 4
171 8 173 9 4 4 491 -4 587 -10z m-180 -1550 c50 -4 119 -8 155 -10 64 -4 176
-10 335 -20 44 -3 103 -7 130 -10 28 -3 101 -7 163 -10 62 -3 129 -7 150 -9
20 -3 93 -8 162 -11 69 -4 143 -9 165 -10 22 -2 50 -4 63 -4 l22 -1 -5 -192
c-3 -106 -7 -224 -10 -263 -7 -111 -14 -201 -19 -237 -3 -18 -8 -60 -11 -93
-3 -33 -8 -69 -10 -80 -5 -24 -16 -90 -20 -125 -2 -14 -13 -68 -25 -120 -12
-52 -23 -103 -25 -112 -48 -231 -197 -600 -335 -826 -207 -341 -545 -656 -959
-895 -68 -39 -130 -72 -138 -73 -30 -5 -259 127 -419 242 -172 123 -374 301
-475 420 -52 61 -169 221 -169 232 0 5 -4 12 -8 14 -12 5 -84 124 -123 203
-19 39 -36 72 -39 75 -23 21 -172 410 -195 510 -1 8 -12 53 -23 100 -24 100
-30 130 -52 253 -6 32 -13 74 -16 94 -2 20 -7 50 -10 67 -12 68 -31 293 -39
461 -6 134 -8 335 -3 340 2 2 46 7 98 10 52 3 120 8 150 10 70 6 194 14 290
20 41 2 113 7 160 10 47 3 121 7 165 10 44 3 116 8 160 11 125 8 181 12 305
19 63 4 116 8 118 9 4 5 246 -2 337 -9z"/>
<path d="M2338 4705 c-2 -2 -30 -5 -63 -9 -33 -3 -71 -8 -85 -11 -13 -3 -42
-7 -65 -10 -22 -4 -51 -8 -65 -10 -71 -11 -111 -16 -173 -20 -38 -3 -73 -7
-77 -10 -5 -3 -11 -1 -15 5 -4 6 -13 7 -23 1 -15 -8 -18 -25 -17 -120 0 -61
-2 -111 -5 -112 -3 0 -15 -2 -27 -3 -34 -4 -38 -12 -39 -77 l-1 -59 32 0 c39
0 41 -7 41 -110 -1 -70 -3 -75 -23 -76 -48 -3 -56 -24 -44 -131 0 -6 16 -13
34 -15 l32 -3 1 -116 c1 -118 5 -141 27 -134 7 2 50 6 97 10 102 7 126 9 210
25 36 6 76 13 90 15 14 1 41 6 60 10 57 11 179 13 223 3 63 -14 148 -17 177
-6 52 20 173 15 345 -14 94 -15 218 -31 276 -34 125 -8 115 -20 114 144 -1
111 -5 102 55 106 12 1 15 17 17 69 2 60 0 67 -18 68 -10 1 -23 3 -29 4 -5 1
-13 3 -17 4 -5 0 -7 36 -7 79 2 102 2 103 17 101 51 -6 55 -2 54 61 -2 63 -14
81 -49 75 -22 -5 -20 -14 -22 117 -1 59 -4 109 -7 112 -2 2 -47 7 -101 10 -95
6 -110 7 -238 27 -36 6 -81 12 -100 15 -19 2 -46 7 -60 9 -55 11 -180 5 -243
-11 -62 -15 -72 -15 -120 -1 -44 14 -161 29 -169 22z m120 -126 l54 -11 -7
-296 c-4 -164 -8 -319 -9 -347 l-2 -50 -79 -1 c-82 -1 -166 -9 -245 -24 -25
-5 -63 -11 -85 -14 -23 -4 -50 -8 -62 -10 -12 -3 -52 -8 -89 -11 l-66 -7 7
258 c3 143 7 300 9 349 1 50 5 96 9 102 7 11 27 15 123 28 55 7 92 13 194 29
112 17 183 19 248 5z m453 -4 c24 -4 53 -9 64 -11 11 -2 40 -7 65 -10 25 -3
52 -8 61 -9 9 -2 40 -6 70 -10 30 -4 57 -10 61 -14 7 -6 10 -65 23 -508 7
-206 6 -210 -28 -204 -4 1 -27 4 -50 6 -23 3 -67 10 -97 15 -30 5 -73 12 -95
16 -22 3 -60 10 -85 14 -25 5 -95 8 -157 7 -107 -2 -112 -1 -111 18 0 17 -6
274 -16 598 -1 43 2 81 7 84 32 20 190 24 288 8z"/>
<path d="M2328 4485 c-2 -2 -30 -6 -63 -10 -32 -3 -63 -9 -67 -11 -4 -3 -8
-25 -8 -49 0 -44 0 -44 33 -40 17 3 66 8 107 11 41 3 78 8 83 11 4 2 7 22 7
44 0 30 -4 39 -17 40 -10 1 -30 2 -45 3 -15 2 -29 2 -30 1z"/>
<path d="M2098 4454 c-5 -4 -81 -17 -105 -17 -7 0 -13 -7 -14 -16 -5 -76 -5
-76 21 -75 41 2 109 12 120 19 16 10 12 82 -4 88 -8 3 -16 4 -18 1z"/>
<path d="M2337 4274 c-1 -1 -27 -4 -57 -8 -92 -9 -145 -18 -152 -24 -8 -8 -11
-28 -9 -63 1 -28 -1 -27 79 -15 15 3 63 8 107 11 44 4 87 11 95 15 16 9 21 80
5 81 -45 3 -66 4 -68 3z"/>
<path d="M2000 4226 c-33 -10 -36 -14 -35 -48 1 -48 6 -52 52 -41 36 8 38 11
41 50 4 48 -7 55 -58 39z"/>
<path d="M2338 4065 c-2 -2 -31 -5 -65 -8 -35 -3 -67 -8 -73 -12 -5 -3 -9 -24
-8 -46 1 -38 10 -46 43 -39 6 1 37 4 70 6 98 7 101 9 100 48 0 19 -3 37 -7 41
-6 7 -55 14 -60 10z"/>
<path d="M2033 4023 c-73 -15 -73 -16 -73 -48 0 -39 9 -67 19 -60 9 5 64 16
110 21 18 2 35 5 36 6 4 5 7 40 6 71 -1 31 1 30 -98 10z"/>
<path d="M2733 4482 c-20 -3 -23 -9 -23 -48 l0 -44 43 -1 c23 0 66 -2 95 -5
36 -3 52 0 53 9 1 15 -2 71 -5 74 -2 2 -89 14 -121 17 -11 1 -30 0 -42 -2z"/>
<path d="M2971 4456 c-9 -12 -11 -86 -2 -87 3 0 17 -3 31 -5 64 -12 151 -20
155 -13 6 9 -1 68 -9 76 -3 3 -42 14 -86 23 -57 12 -83 14 -89 6z"/>
<path d="M2721 4271 c-4 -3 -8 -24 -7 -45 1 -43 -4 -41 101 -46 78 -4 77 -4
70 36 -7 49 -8 50 -52 53 -21 1 -53 3 -71 5 -17 1 -36 0 -41 -3z"/>
<path d="M2949 4248 c-5 -44 -4 -70 1 -78 5 -9 31 -15 101 -24 19 -3 50 -8 70
-11 35 -6 37 -4 41 24 6 39 -7 70 -29 69 -10 0 -31 2 -48 6 -16 3 -50 9 -75
12 -24 3 -48 8 -52 10 -4 3 -9 -1 -9 -8z"/>
<path d="M2738 4062 c-16 -3 -20 -24 -12 -68 3 -18 11 -21 51 -22 27 0 74 -3
106 -6 31 -2 58 -2 58 2 6 38 6 60 0 71 -8 12 -167 30 -203 23z"/>
<path d="M3008 4033 c-3 -4 -3 -18 -2 -30 1 -13 2 -31 3 -42 1 -19 5 -20 136
-37 30 -4 30 -3 27 39 -5 50 -10 54 -77 62 -27 4 -57 9 -67 11 -9 3 -18 1 -20
-3z"/>
<path d="M2552 3263 c-7 -15 -39 -122 -47 -158 -1 -5 -8 -30 -15 -55 -7 -25
-14 -49 -15 -55 -5 -24 -37 -141 -43 -155 -3 -8 -7 -22 -8 -30 -7 -40 -28
-106 -36 -115 -5 -6 -111 -10 -261 -12 -139 -1 -260 -2 -271 -2 -26 -1 -6 -21
180 -178 27 -23 59 -50 71 -60 11 -10 38 -32 60 -50 21 -17 55 -46 76 -65 l38
-33 -67 -230 c-36 -126 -68 -239 -69 -250 -2 -11 -8 -32 -14 -47 -6 -16 -8
-28 -5 -28 2 0 0 -9 -6 -19 -6 -12 -6 -22 -1 -25 5 -4 11 -3 13 2 1 4 26 25
53 47 28 22 52 42 55 45 14 15 289 239 307 250 19 12 30 6 129 -76 60 -49 118
-96 129 -106 95 -80 183 -151 196 -158 14 -8 13 2 -6 71 -13 44 -23 82 -24 84
0 3 -1 6 -2 8 0 1 -2 9 -4 17 -2 8 -27 96 -55 195 -28 99 -52 189 -54 200 -1
11 9 30 23 43 47 42 135 119 221 192 166 141 190 163 185 168 -3 3 -126 6
-273 7 -147 1 -270 3 -274 4 -5 0 -8 9 -8 19 0 10 -9 46 -20 79 -11 34 -21 69
-23 79 -1 11 -6 24 -9 30 -4 6 -9 21 -11 35 -6 31 -97 342 -102 347 -2 2 -8
-5 -13 -15z m73 -568 c19 -55 39 -106 44 -113 4 -7 30 -15 57 -17 27 -2 83 -7
124 -10 41 -3 76 -8 78 -10 2 -2 -41 -49 -96 -104 -105 -105 -106 -107 -86
-173 6 -20 14 -54 20 -91 3 -15 11 -50 18 -77 7 -28 10 -50 6 -50 -11 0 -114
72 -118 82 -2 4 -8 8 -14 8 -5 0 -24 11 -41 24 -18 12 -37 26 -43 29 -7 4 -60
-27 -118 -68 -126 -88 -131 -91 -124 -79 4 5 9 25 12 44 3 19 8 46 11 60 3 14
8 36 11 50 3 14 11 48 18 77 17 63 18 61 -105 180 -49 47 -88 87 -86 89 1 2
43 5 92 8 87 6 133 12 165 21 9 3 35 62 64 146 l49 142 13 -34 c7 -19 29 -79
49 -134z"/>
<path d="M1481 3108 c-86 -101 -120 -188 -125 -320 -3 -66 -12 -74 -46 -43
-24 21 -109 55 -115 45 -9 -14 -23 -133 -19 -160 6 -37 13 -82 19 -110 10 -51
66 -148 111 -192 25 -25 74 -60 109 -76 63 -31 75 -47 75 -101 0 -22 -1 -23
-23 -8 -30 19 -122 47 -157 47 -25 0 -26 -2 -24 -51 4 -70 11 -109 30 -166 42
-122 154 -233 264 -259 19 -4 38 -9 43 -10 4 -1 14 -2 22 -3 16 -1 39 -33 50
-70 6 -21 5 -23 -11 -16 -28 11 -139 18 -169 11 -21 -5 -24 -11 -20 -39 10
-80 60 -186 117 -248 28 -31 102 -81 145 -98 17 -7 64 -14 105 -15 82 -3 97
-9 123 -48 l17 -28 -51 0 c-48 0 -136 -23 -154 -40 -5 -4 5 -37 22 -73 40 -83
121 -166 201 -205 54 -26 70 -29 140 -26 43 1 87 7 98 13 12 6 28 11 36 11 14
0 160 -119 178 -144 4 -5 -18 -29 -48 -52 l-54 -42 34 -25 c36 -28 40 -27 115
26 l40 29 55 -42 56 -42 35 23 c41 28 42 34 14 50 -12 6 -35 25 -51 41 l-30
31 35 31 c35 30 55 48 109 93 25 22 28 23 92 9 79 -16 159 -13 209 8 21 8 39
14 40 13 4 -3 36 24 86 74 45 46 111 154 111 183 0 25 -52 44 -140 51 -19 2
-41 3 -48 4 -10 1 -9 8 3 30 20 40 26 43 108 45 116 3 197 41 269 126 63 73
129 239 106 267 -11 13 -127 12 -180 -2 -28 -7 -28 -7 -15 21 24 55 32 62 77
69 107 15 226 108 280 220 33 68 38 90 46 193 l6 74 -49 -7 c-26 -3 -71 -17
-100 -30 -51 -23 -65 -24 -58 -2 2 7 6 24 9 39 5 20 20 33 69 57 117 57 200
165 231 300 20 87 9 252 -17 247 -23 -5 -88 -36 -117 -56 -15 -11 -30 -20 -32
-20 -3 0 -5 28 -5 63 0 138 -47 254 -138 344 -50 50 -52 49 -91 -53 -29 -75
-39 -214 -22 -283 5 -20 10 -43 12 -51 7 -26 46 -92 87 -146 30 -40 38 -58 34
-76 -3 -13 -7 -32 -9 -41 -3 -25 -12 -29 -26 -12 -7 8 -10 15 -6 15 8 0 -57
93 -94 136 -15 18 -32 29 -37 25 -13 -9 -69 -129 -80 -171 -16 -61 -7 -219 16
-280 19 -50 83 -154 102 -165 10 -7 -33 -104 -45 -105 -5 0 -7 3 -3 6 7 8 -38
128 -69 181 -21 36 -27 41 -42 32 -29 -18 -99 -130 -117 -189 -30 -95 -25
-293 8 -326 4 -4 7 -16 7 -26 0 -10 4 -18 8 -18 4 0 13 -14 20 -32 11 -29 9
-34 -22 -68 l-33 -37 -7 66 c-3 36 -15 91 -26 121 -11 30 -20 56 -20 57 0 15
-36 -6 -83 -48 -44 -39 -67 -71 -99 -137 -37 -77 -42 -95 -45 -171 -1 -50 3
-111 12 -148 20 -86 20 -87 -20 -117 l-35 -27 3 73 c3 66 -5 142 -18 176 -12
31 -215 -115 -215 -154 0 -7 -3 -14 -7 -16 -11 -4 -41 -65 -54 -108 -6 -19
-12 -81 -14 -137 -2 -56 -6 -107 -10 -113 -7 -12 -42 -13 -49 -2 -3 5 -6 53
-7 108 -1 61 -8 118 -18 150 -38 113 -114 205 -213 255 l-57 29 -12 -43 c-6
-23 -11 -84 -11 -135 l-1 -92 -33 33 -34 34 18 84 c10 46 17 109 15 139 -7
109 -56 229 -124 300 -30 32 -84 70 -98 70 -16 0 -53 -134 -55 -197 l-1 -55
-32 38 c-18 20 -33 43 -33 50 0 7 11 34 24 61 32 63 38 89 43 201 4 78 1 105
-17 163 -13 38 -26 69 -31 69 -5 0 -9 5 -9 12 0 13 -78 118 -88 118 -15 0 -62
-88 -85 -159 l-24 -73 -15 33 c-30 64 -30 73 0 107 33 37 78 124 89 173 4 19
7 81 7 139 0 88 -4 114 -24 160 -36 82 -60 119 -73 114 -17 -7 -105 -128 -122
-167 l-13 -32 -10 26 c-10 26 -15 55 -13 75 0 6 14 27 31 45 39 45 75 112 93
175 29 97 16 258 -27 349 -29 61 -38 61 -95 -7z m2168 -153 c13 -27 26 -61 29
-75 7 -31 7 -147 -1 -180 -3 -14 -6 -28 -6 -32 -4 -36 -59 58 -79 135 -10 36
-9 162 1 202 3 11 6 21 6 23 3 10 30 -30 50 -73z m-2118 55 c1 -5 2 -19 3 -29
0 -11 4 -22 7 -25 8 -8 0 -114 -12 -161 -16 -61 -61 -137 -73 -125 -16 16 -24
139 -12 197 7 36 42 121 58 140 13 15 28 17 29 3z m-150 -476 c17 -34 33 -80
36 -101 2 -21 6 -43 8 -49 2 -6 -1 -17 -6 -25 -18 -26 -126 107 -143 176 -2 6
-6 21 -9 35 -12 46 -16 81 -11 95 10 24 91 -62 125 -131z m2483 79 c-7 -79
-61 -191 -113 -232 -22 -17 -42 -28 -44 -24 -14 22 7 124 39 188 25 49 93 125
112 125 6 0 8 -23 6 -57z m-314 -237 c18 -67 18 -141 0 -208 l-12 -42 -19 24
c-35 47 -56 129 -53 215 1 44 7 93 14 110 l11 29 21 -33 c12 -18 28 -60 38
-95z m-1899 72 c21 -79 6 -207 -33 -277 -26 -47 -25 -46 -39 -19 -16 30 -21
164 -8 214 14 54 47 124 59 124 5 0 14 -19 21 -42z m2094 -395 c-17 -96 -122
-224 -194 -238 -29 -5 -27 17 8 90 33 69 74 117 133 156 47 32 60 29 53 -8z
m-2319 11 c67 -32 141 -135 159 -221 8 -39 3 -40 -50 -12 -66 36 -123 111
-149 197 -17 57 -13 61 40 36z m376 -122 c28 -62 36 -190 15 -252 -13 -40 -41
-62 -43 -35 0 6 -9 28 -19 50 -13 28 -18 65 -19 125 -1 84 19 174 36 164 4 -3
18 -26 30 -52z m1577 -6 c17 -64 7 -184 -20 -240 -13 -27 -28 -50 -33 -50 -18
-2 -35 89 -32 168 3 96 39 197 62 174 7 -7 17 -30 23 -52z m-1330 -453 c11
-24 21 -45 21 -48 0 -3 6 -18 13 -33 8 -16 13 -54 12 -97 -3 -97 -4 -105 -13
-105 -13 0 -59 75 -80 132 -19 50 -26 154 -15 198 7 28 36 6 62 -47z m1086 45
c3 -13 5 -34 5 -48 0 -14 0 -38 -1 -55 0 -46 -27 -128 -59 -178 -47 -74 -53
-67 -52 62 0 67 19 129 61 199 29 48 38 52 46 20z m-1445 -20 c40 -18 141
-110 138 -127 -1 -3 5 -18 12 -34 7 -15 11 -29 8 -32 -14 -14 -123 40 -168 84
-40 38 -90 114 -90 136 0 9 51 -5 100 -27z m1830 2 c-5 -9 -6 -20 -3 -24 3 -3
1 -6 -5 -6 -6 0 -13 -9 -17 -20 -9 -27 -77 -91 -128 -117 -41 -23 -97 -31 -97
-15 0 23 37 78 81 122 68 68 198 115 169 60z m-695 -407 c-9 -85 -50 -177
-100 -226 -21 -20 -43 -37 -48 -37 -18 0 2 123 31 185 24 49 102 145 120 145
2 0 1 -30 -3 -67z m-470 13 c32 -33 55 -74 74 -129 19 -57 28 -147 14 -147 -5
0 -27 19 -49 43 -45 46 -81 117 -90 175 -3 20 -7 48 -9 61 -8 48 10 47 60 -3z
m-301 -80 c46 -19 72 -40 116 -89 27 -31 31 -40 19 -47 -20 -13 -98 -2 -146
21 -46 22 -133 104 -133 125 0 18 94 11 144 -10z m1156 9 c0 -24 -73 -95 -124
-120 -61 -30 -156 -42 -156 -20 0 38 106 125 171 143 49 12 109 11 109 -3z"/>
</g>
</svg>
